<svg width="61" height="60" viewBox="0 0 61 60" fill="none" xmlns="http://www.w3.org/2000/svg">
<path fill-rule="evenodd" clip-rule="evenodd" d="M30.34 13.5069L18.556 25.1122L11.6992 18.3592L30.34 0L48.9872 18.3653L42.1303 25.1182L30.34 13.5069ZM13.7136 29.8795L6.85677 23.127L0 29.8799L6.85677 36.633L13.7136 29.8795ZM30.34 46.2544L18.556 34.6492L11.6891 41.3932L11.6987 41.4025L30.34 59.7614L48.9872 41.3964L48.9905 41.3926L42.1299 34.6435L30.34 46.2544ZM53.8242 36.6358L60.6805 29.8827L53.8238 23.1298L46.967 29.8833L53.8242 36.6358ZM37.2989 29.8784H37.3018L30.3436 23.0252L23.3913 29.8917L30.3436 36.7385L37.3018 29.8854L37.3053 29.8818L37.2989 29.8784Z" fill="#EC774E"/>
</svg>
