<svg width="171" height="35" viewBox="0 0 171 35" fill="none" xmlns="http://www.w3.org/2000/svg">
<path d="M74.0284 24H77.9773L78.9148 18.3182H84.5682L85.108 15.1364H79.4545L79.8523 12.6364H86.1307L86.6705 9.45455H76.4432L74.0284 24ZM85.5305 24H89.451L90.3885 18.3182C90.6158 17.0682 91.6101 16.2443 92.7464 16.2443C93.1726 16.2443 93.7976 16.3011 94.1669 16.4432L94.7351 13.0909C94.4226 13.0057 94.1101 12.9489 93.7692 12.9489C92.6044 12.9489 91.5817 13.6307 90.9283 15.1648H90.8146L91.1555 13.0909H87.3487L85.5305 24ZM96.706 24.1705C98.1264 24.1705 99.2912 23.6875 100.143 22.4659H100.229L99.973 24H103.638L104.888 16.5284C105.229 14.5114 103.553 12.9489 100.456 12.9489C97.1889 12.9489 95.2855 14.6534 94.831 16.642H98.4389C98.6378 15.9602 99.206 15.6477 99.9446 15.6477C100.626 15.6477 101.053 15.9602 100.967 16.5284V16.5568C100.854 17.1818 100.115 17.3807 98.2685 17.5227C95.9957 17.6932 94.0923 18.6023 93.6946 20.9886C93.3253 23.1477 94.6321 24.1705 96.706 24.1705ZM98.4105 21.6989C97.7287 21.6989 97.331 21.358 97.4162 20.7614C97.5014 20.1932 97.9844 19.767 98.9219 19.625C99.5469 19.5114 100.115 19.3977 100.541 19.2273L100.399 20.1364C100.229 21.1307 99.2912 21.6989 98.4105 21.6989ZM110.085 28.3182C113.522 28.3182 116.079 26.7557 116.505 23.9716L118.324 13.0909H114.403L114.091 14.9943H114.005C113.75 13.8864 112.897 12.9489 111.278 12.9489C109.119 12.9489 106.733 14.5966 106.079 18.5455C105.454 22.3239 107.159 23.858 109.488 23.858C110.966 23.858 112.244 23.233 112.841 22.125H112.954L112.642 23.9716C112.471 25.25 111.647 25.6761 110.625 25.6761C109.716 25.6761 109.119 25.4205 109.091 24.7102H105.312C105.142 26.8125 106.789 28.3182 110.085 28.3182ZM111.392 21.0739C110.312 21.0739 109.858 20.1648 110.113 18.5455C110.369 16.9261 111.164 15.9602 112.244 15.9602C113.324 15.9602 113.806 16.9261 113.551 18.5455C113.295 20.1364 112.471 21.0739 111.392 21.0739ZM118.528 24H122.448L123.528 17.6364C123.663 16.6847 124.259 16.1023 125.062 16.1023C125.879 16.1023 126.305 16.6847 126.17 17.6364L125.09 24H128.84L129.92 17.6364C130.055 16.6847 130.651 16.1023 131.454 16.1023C132.271 16.1023 132.697 16.6847 132.562 17.6364L131.482 24H135.403L136.624 16.642C137.001 14.4048 135.8 12.9489 133.727 12.9489C132.093 12.9489 130.644 13.8295 130.062 15.1648H129.948C129.934 13.8295 128.854 12.9489 127.335 12.9489C125.808 12.9489 124.515 13.8011 123.84 15.1648H123.727L124.067 13.0909H120.346L118.528 24ZM142.507 24.1989C145.547 24.1989 147.706 22.75 148.473 20.4773H144.893C144.552 21.1023 143.842 21.4432 143.047 21.4432C141.882 21.4432 141.342 20.6761 141.512 19.625L141.548 19.4545H148.643L148.785 18.5455C149.353 15.0795 147.592 12.9489 144.297 12.9489C140.916 12.9489 138.387 15.1932 137.819 18.5739C137.223 22.0966 139.012 24.1989 142.507 24.1989ZM141.953 17.2955C142.173 16.3366 143.011 15.7045 143.956 15.7045C144.922 15.7045 145.518 16.358 145.376 17.2955H141.953ZM154.447 17.8636C154.625 16.7841 155.364 16.1307 156.322 16.1307C157.324 16.1307 157.778 16.7841 157.601 17.8636L156.578 24H160.499L161.663 17.0398C162.068 14.6534 160.847 12.9489 158.538 12.9489C156.926 12.9489 155.506 13.7727 154.817 15.1648H154.703L155.044 13.0909H151.322L149.504 24H153.425L154.447 17.8636ZM170.729 13.0909H168.847L169.281 10.4773H165.36L164.927 13.0909H163.542L163.059 15.9318H164.458L163.641 20.8608C163.215 23.1335 164.437 24.2912 167.192 24.1562C168.073 24.1136 168.755 23.929 169.153 23.8153L169.039 21.0597C168.869 21.0881 168.471 21.1733 168.244 21.1733C167.732 21.1733 167.54 20.946 167.619 20.4915L168.379 15.9318H170.246L170.729 13.0909Z" fill="white"/>
<path d="M0 17.5C0 27.165 7.83502 35 17.5 35V0C7.83502 0 0 7.83502 0 17.5Z" fill="#EC774E"/>
<circle cx="39.5" cy="17.5" r="17.5" fill="#EC774E"/>
<path d="M29 15.2802L33.2842 11H46.7158L51 15.2802L40 26L29 15.2802Z" fill="white"/>
</svg>
