<svg width="26" height="25" viewBox="0 0 26 25" fill="none" xmlns="http://www.w3.org/2000/svg">
<path d="M23.7852 1L14.2681 8.06848L16.028 3.89817L23.7852 1Z" fill="#E2761B" stroke="#E2761B" stroke-linecap="round" stroke-linejoin="round"/>
<path d="M1.81494 1L11.2555 8.13543L9.58166 3.89817L1.81494 1Z" fill="#E4761B" stroke="#E4761B" stroke-linecap="round" stroke-linejoin="round"/>
<path d="M20.3614 17.3847L17.8267 21.2681L23.25 22.7602L24.8091 17.4708L20.3614 17.3847Z" fill="#E4761B" stroke="#E4761B" stroke-linecap="round" stroke-linejoin="round"/>
<path d="M0.810547 17.4708L2.36006 22.7602L7.78338 21.2681L5.24867 17.3847L0.810547 17.4708Z" fill="#E4761B" stroke="#E4761B" stroke-linecap="round" stroke-linejoin="round"/>
<path d="M7.47708 10.8232L5.96582 13.1092L11.3509 13.3483L11.1596 7.56152L7.47708 10.8232Z" fill="#E4761B" stroke="#E4761B" stroke-linecap="round" stroke-linejoin="round"/>
<path d="M18.1232 10.8232L14.3929 7.4946L14.2686 13.3483L19.644 13.1092L18.1232 10.8232Z" fill="#E4761B" stroke="#E4761B" stroke-linecap="round" stroke-linejoin="round"/>
<path d="M7.7832 21.2681L11.0161 19.6899L8.22319 17.5091L7.7832 21.2681Z" fill="#E4761B" stroke="#E4761B" stroke-linecap="round" stroke-linejoin="round"/>
<path d="M14.584 19.6899L17.8265 21.2681L17.3769 17.5091L14.584 19.6899Z" fill="#E4761B" stroke="#E4761B" stroke-linecap="round" stroke-linejoin="round"/>
<path d="M17.8265 21.2681L14.584 19.6899L14.8422 21.8037L14.8135 22.6933L17.8265 21.2681Z" fill="#D7C1B3" stroke="#D7C1B3" stroke-linecap="round" stroke-linejoin="round"/>
<path d="M7.7832 21.2681L10.7962 22.6933L10.777 21.8037L11.0161 19.6899L7.7832 21.2681Z" fill="#D7C1B3" stroke="#D7C1B3" stroke-linecap="round" stroke-linejoin="round"/>
<path d="M7.78324 21.2681L8.24236 17.3847L5.24854 17.4708L7.78324 21.2681Z" fill="#CD6116" stroke="#CD6116" stroke-linecap="round" stroke-linejoin="round"/>
<path d="M17.3672 17.3847L17.8263 21.2681L20.361 17.4708L17.3672 17.3847Z" fill="#CD6116" stroke="#CD6116" stroke-linecap="round" stroke-linejoin="round"/>
<path d="M19.6436 13.1092L14.2681 13.3483L14.7654 16.1126L15.5593 14.4483L17.4723 15.3187L19.6436 13.1092Z" fill="#CD6116" stroke="#CD6116" stroke-linecap="round" stroke-linejoin="round"/>
<path d="M8.14662 15.3187L10.0596 14.4483L10.8439 16.1126L11.3509 13.3483L5.96582 13.1092L8.14662 15.3187Z" fill="#CD6116" stroke="#CD6116" stroke-linecap="round" stroke-linejoin="round"/>
<path d="M10.8438 15.1126L8.14648 14.3187L10.0499 13.4483L10.8438 15.1126Z" fill="#233447" stroke="#233447" stroke-linecap="round" stroke-linejoin="round"/>
<path d="M14.7559 15.1126L15.5497 13.4483L17.4627 14.3187L14.7559 15.1126Z" fill="#233447" stroke="#233447" stroke-linecap="round" stroke-linejoin="round"/>
<path d="M5.96582 13.1092L8.22314 17.5091L8.14662 15.3187L5.96582 13.1092Z" fill="#E4751F" stroke="#E4751F" stroke-linecap="round" stroke-linejoin="round"/>
<path d="M17.4721 15.3187L17.3765 17.5091L19.6434 13.1092L17.4721 15.3187Z" fill="#E4751F" stroke="#E4751F" stroke-linecap="round" stroke-linejoin="round"/>
<path d="M11.3507 13.3483L10.8438 16.1126L11.475 19.3742L11.6185 15.0796L11.3507 13.3483Z" fill="#E4751F" stroke="#E4751F" stroke-linecap="round" stroke-linejoin="round"/>
<path d="M14.268 13.3483L14.0098 15.07L14.1245 19.3742L14.7654 16.1126L14.268 13.3483Z" fill="#E4751F" stroke="#E4751F" stroke-linecap="round" stroke-linejoin="round"/>
<path d="M14.7654 16.1126L14.1245 19.3742L14.5836 19.6899L17.3766 17.5091L17.4722 15.3187L14.7654 16.1126Z" fill="#F6851B" stroke="#F6851B" stroke-linecap="round" stroke-linejoin="round"/>
<path d="M8.14648 15.3187L8.223 17.5091L11.016 19.6899L11.4751 19.3742L10.8438 16.1126L8.14648 15.3187Z" fill="#F6851B" stroke="#F6851B" stroke-linecap="round" stroke-linejoin="round"/>
<path d="M14.8134 22.6932L14.8421 21.8037L14.603 21.5933H10.997L10.777 21.8037L10.7962 22.6932L7.7832 21.2681L8.83534 22.1289L10.9683 23.6115H14.6317L16.7742 22.1289L17.8264 21.2681L14.8134 22.6932Z" fill="#C0AD9E" stroke="#C0AD9E" stroke-linecap="round" stroke-linejoin="round"/>
<path d="M14.5837 19.6898L14.1246 19.3742H11.4751L11.016 19.6898L10.7769 21.8037L10.9968 21.5933H14.6028L14.8419 21.8037L14.5837 19.6898Z" fill="#161616" stroke="#161616" stroke-linecap="round" stroke-linejoin="round"/>
<path d="M24.1872 8.5276L25.0002 4.62511L23.7854 1L14.584 7.82936L18.123 10.8232L23.1255 12.2866L24.235 10.9953L23.7567 10.651L24.5219 9.95277L23.9289 9.49365L24.6941 8.91019L24.1872 8.5276Z" fill="#763D16" stroke="#763D16" stroke-linecap="round" stroke-linejoin="round"/>
<path d="M0.609375 4.62511L1.42239 8.5276L0.905888 8.91019L1.67108 9.49365L1.08762 9.95277L1.85282 10.651L1.37457 10.9953L2.47454 12.2866L7.47699 10.8232L11.016 7.82936L1.81456 1L0.609375 4.62511Z" fill="#763D16" stroke="#763D16" stroke-linecap="round" stroke-linejoin="round"/>
<path d="M23.125 12.2866L18.1225 10.8232L19.6434 13.1092L17.3765 17.5091L20.3607 17.4708H24.8084L23.125 12.2866Z" fill="#F6851B" stroke="#F6851B" stroke-linecap="round" stroke-linejoin="round"/>
<path d="M7.47681 10.8232L2.47436 12.2866L0.810059 17.4708H5.24818L8.22287 17.5091L5.96555 13.1092L7.47681 10.8232Z" fill="#F6851B" stroke="#F6851B" stroke-linecap="round" stroke-linejoin="round"/>
<path d="M14.2684 13.3483L14.584 7.82935L16.0379 3.89816H9.58154L11.0163 7.82935L11.3511 13.3483L11.4658 15.0891L11.4754 19.3742H14.1249L14.144 15.0891L14.2684 13.3483Z" fill="#F6851B" stroke="#F6851B" stroke-linecap="round" stroke-linejoin="round"/>
</svg>
