<svg width="46" height="46" viewBox="0 0 46 46" fill="none" xmlns="http://www.w3.org/2000/svg">
<path d="M23 0L26.5639 10.8624L35.4347 3.65117L32.5602 14.716L43.9215 13.4455L35.5212 21.1997L45.7659 26.2732L34.5068 28.255L40.3822 38.0618L29.8391 33.6419L29.4798 45.0683L23 35.65L16.5202 45.0683L16.1609 33.6419L5.61776 38.0618L11.4932 28.255L0.234106 26.2732L10.4788 21.1997L2.07846 13.4455L13.4398 14.716L10.5653 3.65117L19.4361 10.8624L23 0Z" fill="#EC774E"/>
<path d="M21.5321 24.2294L20.524 21.6899L20.4089 21.7411L20.7905 27.0729L17.0836 23.2217L16.9685 23.2729L18.1812 25.7213L19.9521 29.6989L18.2895 30.4392L14.3148 21.512L16.5786 20.5041L19.0167 23.02L19.119 22.9744L18.8807 19.4791L20.991 18.5396L24.9657 27.4667L23.303 28.207L21.5321 24.2294ZM28.3371 25.9657L26.9306 22.8066L21.536 18.297L23.6718 17.346L25.5408 18.9965L27.0115 20.4412L27.1138 20.3957L27.0244 18.336L27.0483 15.8427L29.1074 14.9259L28.8491 21.9525L30.2556 25.1115L28.3371 25.9657Z" fill="white"/>
</svg>
